<?xml version="1.0" encoding="UTF-8" standalone="no"?><!DOCTYPE svg PUBLIC "-//W3C//DTD SVG 1.1//EN" "http://www.w3.org/Graphics/SVG/1.1/DTD/svg11.dtd"><svg width="100%" height="100%" viewBox="0 0 1973 1927" version="1.1" xmlns="http://www.w3.org/2000/svg" xmlns:xlink="http://www.w3.org/1999/xlink" xml:space="preserve" xmlns:serif="http://www.serif.com/" style="fill-rule:evenodd;clip-rule:evenodd;stroke-linejoin:round;stroke-miterlimit:2;"><g id="Closet"><path id="Bottom-Drawer" serif:id="Bottom Drawer" d="M1655.93,1294.04c0,-3.817 -1.516,-7.477 -4.215,-10.176c-2.699,-2.699 -6.359,-4.215 -10.176,-4.215c-139.389,0 -1247.37,0 -1386.76,0c-3.816,0 -7.477,1.516 -10.176,4.215c-2.699,2.699 -4.215,6.359 -4.215,10.176c0,74.447 0,415.269 0,489.716c0,3.817 1.516,7.477 4.215,10.176c2.699,2.699 6.36,4.215 10.176,4.215c139.39,0 1247.38,0 1386.76,0c3.817,0 7.477,-1.516 10.176,-4.215c2.699,-2.699 4.215,-6.359 4.215,-10.176c0,-74.447 0,-415.269 0,-489.716Zm-536.852,78.526c0,-8.231 -6.682,-14.913 -14.912,-14.913l-309.723,0c-8.23,0 -14.912,6.682 -14.912,14.913l-0,29.825c-0,8.23 6.682,14.912 14.912,14.912l309.723,0c8.23,0 14.912,-6.682 14.912,-14.912l0,-29.825Z" style="fill:#baab93;"/><path id="Bottom" d="M1747.7,1922.6l-78.571,-78.571l-1439.65,0l-78.571,78.571l-0,0.001c-0,2.22 1.8,4.021 4.021,4.021c85.398,-0 1503.35,-0 1588.75,-0c2.221,-0 4.021,-1.801 4.021,-4.021c-0,-0.001 -0,-0.001 -0,-0.001Z" style="fill:#baab93;"/><path id="Top" d="M1747.7,0c-0,0 -52.532,52.533 -73.806,73.806c-5.626,5.626 -13.256,8.787 -21.213,8.787c-283.783,-0 -1122.97,-0 -1406.75,-0c-7.957,-0 -15.588,-3.161 -21.214,-8.787c-21.273,-21.273 -73.805,-73.806 -73.805,-73.806l-0,0l1596.79,0l-0,0Z" style="fill:#baab93;"/><path id="Right-Door" serif:id="Right Door" d="M1655.93,160.234c0,-7.957 -3.16,-15.587 -8.787,-21.213c-5.626,-5.626 -13.256,-8.787 -21.213,-8.787c-111.146,-0 -498.771,-0 -609.918,-0c-7.956,-0 -15.587,3.161 -21.213,8.787c-5.626,5.626 -8.787,13.256 -8.787,21.213c0,157.572 0,888.252 0,1045.82c0,7.957 3.161,15.588 8.787,21.214c5.626,5.626 13.257,8.786 21.213,8.786c111.147,0 498.772,0 609.918,0c7.957,0 15.587,-3.16 21.213,-8.786c5.627,-5.626 8.787,-13.257 8.787,-21.214c0,-157.571 0,-888.251 0,-1045.82Z" style="fill:#baab93;"/></g><g id="Arrow"><path d="M1592.54,385.455c5.533,-6.882 7.753,-15.852 6.069,-24.52c-1.684,-8.669 -7.102,-16.155 -14.81,-20.464c-13.749,-7.687 -30.444,-17.02 -46.569,-26.035c-10.515,-5.879 -16.494,-17.478 -15.182,-29.454c1.313,-11.975 9.662,-22.004 21.201,-25.466c86.387,-25.92 231.896,-69.577 294.112,-88.244c7.779,-2.334 16.172,-1.414 23.261,2.549c7.089,3.964 12.268,10.632 14.354,18.481c16.682,62.777 55.7,209.598 78.864,296.765c3.094,11.643 -1.077,24.008 -10.591,31.398c-9.515,7.389 -22.527,8.371 -33.042,2.492c-22.348,-12.494 -46.167,-25.81 -62.891,-35.161c-12.778,-7.143 -28.847,-4.021 -38.02,7.387c-80.095,99.616 -439.166,546.195 -525.684,653.797c-10.382,12.913 -29.266,14.964 -42.178,4.582c-22.86,-18.381 -54.676,-43.962 -57.731,-46.419c-0.158,-0.127 -0.318,-0.253 -0.48,-0.377c-6.275,-4.839 -132.979,-102.535 -185.329,-142.9c-12.551,-9.678 -30.465,-7.923 -40.899,4.006c-102.74,117.454 -600.78,686.828 -706.503,807.694c-10.909,12.471 -29.862,13.737 -42.332,2.829c-44.148,-38.617 -141.431,-123.712 -185.579,-162.328c-5.988,-5.239 -9.651,-12.642 -10.181,-20.581c-0.531,-7.938 2.114,-15.763 7.353,-21.751c126.224,-144.303 815.11,-931.857 828.88,-947.6c0.056,-0.063 0.134,-0.102 0.218,-0.108c0.085,-0.006 0.168,0.023 0.231,0.078c0,0 0.001,0.001 0.001,0.001c0.058,0.051 0.135,0.075 0.212,0.068c0.076,-0.008 0.147,-0.047 0.194,-0.108c1.998,-2.592 20.07,-26.029 34.533,-44.786c10.117,-13.121 28.955,-15.556 42.076,-5.439c62.609,48.274 231.556,178.542 293.618,226.396c12.933,9.972 31.466,7.768 41.699,-4.959c62.098,-77.232 263.648,-327.902 331.125,-411.823Z" style="fill:#ffdca5;"/></g><path id="Left-Door" serif:id="Left Door" d="M910.305,160.234c0,-7.957 -3.161,-15.587 -8.787,-21.213c-5.626,-5.626 -13.256,-8.787 -21.213,-8.787c-111.146,-0 -498.771,-0 -609.918,-0c-7.956,-0 -15.587,3.161 -21.213,8.787c-5.626,5.626 -8.787,13.256 -8.787,21.213c0,157.572 0,888.252 0,1045.82c0,7.957 3.161,15.588 8.787,21.214c5.626,5.626 13.257,8.786 21.213,8.786c111.147,0 498.772,0 609.918,0c7.957,0 15.587,-3.16 21.213,-8.786c5.626,-5.626 8.787,-13.257 8.787,-21.214c0,-157.571 0,-888.251 0,-1045.82Z" style="fill:#baab93;"/></svg>