<?xml version="1.0" encoding="UTF-8" standalone="no"?><!DOCTYPE svg PUBLIC "-//W3C//DTD SVG 1.1//EN" "http://www.w3.org/Graphics/SVG/1.1/DTD/svg11.dtd"><svg width="100%" height="100%" viewBox="0 0 10 10" version="1.1" xmlns="http://www.w3.org/2000/svg" xmlns:xlink="http://www.w3.org/1999/xlink" xml:space="preserve" xmlns:serif="http://www.serif.com/" style="fill-rule:evenodd;clip-rule:evenodd;stroke-linejoin:round;stroke-miterlimit:2;"><g id="Layer1"><path d="M2.753,8.457l-0.812,-2.352l0.3,0l0.545,1.708c0.044,0.137 0.081,0.266 0.11,0.385c0.033,-0.128 0.071,-0.256 0.113,-0.385l0.567,-1.708l0.283,0l-0.821,2.352l-0.285,0Z" style="fill:#ddefff;fill-rule:nonzero;"/><path d="M6.377,8.457l0,-2.353l0.965,0c0.194,0 0.341,0.021 0.442,0.063c0.101,0.042 0.182,0.117 0.242,0.224c0.061,0.107 0.091,0.225 0.091,0.355c0,0.167 -0.05,0.307 -0.15,0.422c-0.1,0.114 -0.254,0.187 -0.463,0.218c0.076,0.04 0.134,0.079 0.174,0.117c0.084,0.084 0.163,0.188 0.239,0.313l0.378,0.641l-0.362,0l-0.288,-0.49c-0.084,-0.141 -0.154,-0.249 -0.208,-0.324c-0.054,-0.075 -0.103,-0.127 -0.146,-0.157c-0.043,-0.03 -0.087,-0.051 -0.132,-0.063c-0.032,-0.007 -0.086,-0.011 -0.16,-0.011l-0.334,0l0,1.045l-0.288,0Zm0.288,-1.315l0.619,0c0.132,0 0.235,-0.015 0.309,-0.044c0.074,-0.029 0.131,-0.076 0.169,-0.141c0.039,-0.065 0.058,-0.135 0.058,-0.211c0,-0.112 -0.037,-0.203 -0.112,-0.275c-0.075,-0.071 -0.193,-0.107 -0.354,-0.107l-0.689,0l0,0.778Z" style="fill:#ddefff;fill-rule:nonzero;"/><path d="M4.299,1.199c0,-0.294 -0.057,-0.473 -0.172,-0.538c-0.116,-0.065 -0.259,-0.098 -0.431,-0.098c-0.354,0 -0.675,0.093 -0.963,0.277c-0.288,0.184 -0.432,0.405 -0.432,0.664c0,0.185 0.064,0.347 0.192,0.484c0.127,0.138 0.406,0.29 0.835,0.456c0.416,0.159 0.711,0.322 0.888,0.491c0.176,0.169 0.264,0.373 0.264,0.611c0,0.24 -0.123,0.5 -0.368,0.78c-0.246,0.279 -0.542,0.491 -0.888,0.637c-0.346,0.145 -0.641,0.218 -0.883,0.218c-0.202,0 -0.355,-0.031 -0.459,-0.094c-0.105,-0.063 -0.157,-0.142 -0.157,-0.237c0,-0.066 0.016,-0.147 0.047,-0.243c0.03,-0.096 0.062,-0.144 0.093,-0.144c0.034,0 0.068,0.008 0.103,0.023c0.179,0.088 0.356,0.132 0.531,0.132c0.316,0 0.65,-0.121 1.004,-0.365c0.354,-0.244 0.531,-0.472 0.531,-0.684c0,-0.09 -0.054,-0.177 -0.162,-0.26c-0.107,-0.082 -0.38,-0.215 -0.817,-0.399c-0.543,-0.227 -0.876,-0.448 -1,-0.663c-0.125,-0.215 -0.187,-0.442 -0.187,-0.681c0,-0.459 0.199,-0.829 0.598,-1.11c0.399,-0.282 0.817,-0.422 1.252,-0.422c0.289,0 0.511,0.064 0.667,0.193c0.155,0.13 0.232,0.272 0.232,0.429c0,0.075 -0.017,0.184 -0.052,0.328c-0.035,0.143 -0.124,0.215 -0.266,0.215Z" style="fill:#ddefff;fill-rule:nonzero;stroke:#ddefff;stroke-width:0.03px;"/><path d="M6.98,4.087c0.088,-0.521 0.174,-1.162 0.259,-1.923c0.085,-0.761 0.127,-1.292 0.127,-1.594c0,-0.16 0.008,-0.268 0.026,-0.325c0.016,-0.057 0.05,-0.107 0.104,-0.148c0.052,-0.042 0.109,-0.063 0.172,-0.063c0.041,0 0.075,0.044 0.104,0.132c0.029,0.087 0.044,0.191 0.044,0.312c0,0.094 -0.024,0.26 -0.07,0.499c-0.091,0.543 -0.18,1.187 -0.27,1.933c-0.088,0.746 -0.132,1.176 -0.132,1.292c0,0.235 0.002,0.383 0.007,0.444c0.006,0.114 -0.019,0.203 -0.073,0.269c-0.054,0.066 -0.125,0.099 -0.214,0.099c-0.052,0 -0.087,-0.011 -0.105,-0.032c-0.018,-0.02 -0.055,-0.079 -0.113,-0.175c-0.057,-0.097 -0.093,-0.19 -0.108,-0.279c-0.01,-0.084 -0.056,-0.193 -0.132,-0.329c-0.417,-0.806 -0.792,-1.686 -1.125,-2.641c-0.093,0.506 -0.181,1.208 -0.262,2.106l-0.055,0.548c-0.005,0.055 -0.008,0.165 -0.007,0.33c0.001,0.166 -0.006,0.277 -0.018,0.334c-0.011,0.057 -0.04,0.122 -0.087,0.195c-0.045,0.074 -0.089,0.11 -0.131,0.11c-0.096,0 -0.154,-0.063 -0.172,-0.189c-0.017,-0.126 -0.025,-0.222 -0.025,-0.29c0,-0.16 0.032,-0.421 0.095,-0.782c0.064,-0.359 0.142,-0.912 0.236,-1.659c0.093,-0.746 0.14,-1.22 0.14,-1.422l-0.003,-0.181c0.002,-0.063 0.011,-0.119 0.026,-0.169c0.015,-0.049 0.044,-0.091 0.087,-0.126c0.042,-0.035 0.085,-0.053 0.127,-0.053c0.038,0 0.075,0.013 0.108,0.038c0.034,0.025 0.057,0.064 0.071,0.115c0.015,0.051 0.032,0.147 0.053,0.287c0.058,0.425 0.237,0.993 0.537,1.703c0.301,0.711 0.56,1.256 0.779,1.634Z" style="fill:#ddefff;fill-rule:nonzero;stroke:#ebebeb;stroke-width:0.03px;"/><g><path d="M7.75,0.218c0,0 1.121,0.131 1.684,0.197c0.177,0.021 0.305,0.177 0.292,0.354c-0.007,0.083 -0.046,0.16 -0.111,0.213c-0.064,0.053 -0.147,0.078 -0.23,0.069c-0.394,-0.045 -1.016,-0.117 -1.016,-0.117" style="fill:none;stroke:#ddefff;stroke-width:0.25px;stroke-linecap:round;stroke-miterlimit:1.5;"/><path d="M8.372,0.935c0,0 0.378,0.045 0.665,0.079c0.177,0.021 0.307,0.179 0.293,0.357l0,0.001c-0.006,0.082 -0.046,0.158 -0.11,0.211c-0.063,0.053 -0.146,0.077 -0.228,0.068c-0.377,-0.043 -0.958,-0.11 -0.958,-0.11" style="fill:none;stroke:#ddefff;stroke-width:0.25px;stroke-linecap:round;stroke-miterlimit:1.5;"/><path d="M8.034,1.541c0,0 0.313,0.038 0.567,0.068c0.178,0.022 0.308,0.18 0.295,0.359l0,0.001c-0.006,0.082 -0.046,0.158 -0.109,0.21c-0.064,0.053 -0.146,0.077 -0.228,0.068c-0.375,-0.043 -0.955,-0.11 -0.955,-0.11" style="fill:none;stroke:#ddefff;stroke-width:0.25px;stroke-linecap:round;stroke-miterlimit:1.5;"/></g><path d="M3.335,4.928l1.318,0" style="fill:none;stroke:#ddefff;stroke-width:0.27px;stroke-linecap:round;stroke-miterlimit:1.5;"/><path d="M5.158,4.928l1.715,0" style="fill:none;stroke:#ddefff;stroke-width:0.3px;stroke-linecap:round;stroke-miterlimit:1.5;"/><path d="M7.316,4.928l1.468,0c0.53,0 0.959,0.527 0.959,1.176l0,2.353c0,0.65 -0.429,1.177 -0.959,1.177l-2.878,0c0,-0.65 -0.43,-1.177 -0.959,-1.177c-0.53,0 -0.959,0.527 -0.959,1.177l-2.878,0c-0.53,0 -0.96,-0.527 -0.96,-1.177l0,-2.353c0,-0.649 0.43,-1.176 0.96,-1.176l0.615,0" style="fill:none;stroke:#ddefff;stroke-width:0.3px;stroke-linecap:round;stroke-miterlimit:1.5;"/><g><path d="M2.463,0.485c0,0 -1.108,-0.235 -1.666,-0.354c-0.081,-0.017 -0.165,0 -0.233,0.048c-0.068,0.047 -0.114,0.121 -0.125,0.203c-0.025,0.175 0.089,0.339 0.262,0.376c0.389,0.084 1.011,0.218 1.011,0.218" style="fill:none;stroke:#ddefff;stroke-width:0.25px;stroke-linecap:round;stroke-miterlimit:1.5;"/><path d="M1.709,0.975c0,0 -0.376,-0.079 -0.66,-0.138c-0.081,-0.017 -0.165,0 -0.233,0.047c-0.068,0.048 -0.113,0.121 -0.124,0.203l0,0.001c-0.025,0.175 0.089,0.34 0.263,0.377c0.372,0.08 0.95,0.205 0.95,0.205" style="fill:none;stroke:#ddefff;stroke-width:0.25px;stroke-linecap:round;stroke-miterlimit:1.5;"/><path d="M1.905,1.67c0,0 -0.311,-0.065 -0.562,-0.118c-0.082,-0.017 -0.167,0 -0.235,0.048c-0.069,0.048 -0.114,0.122 -0.126,0.205c-0.025,0.174 0.089,0.337 0.26,0.374c0.372,0.08 0.95,0.204 0.95,0.204" style="fill:none;stroke:#ddefff;stroke-width:0.25px;stroke-linecap:round;stroke-miterlimit:1.5;"/></g></g></svg>