<?xml version="1.0" encoding="UTF-8" standalone="no"?><!DOCTYPE svg PUBLIC "-//W3C//DTD SVG 1.1//EN" "http://www.w3.org/Graphics/SVG/1.1/DTD/svg11.dtd"><svg width="100%" height="100%" viewBox="0 0 1139 928" version="1.1" xmlns="http://www.w3.org/2000/svg" xmlns:xlink="http://www.w3.org/1999/xlink" xml:space="preserve" xmlns:serif="http://www.serif.com/" style="fill-rule:evenodd;clip-rule:evenodd;stroke-linecap:round;stroke-linejoin:round;stroke-miterlimit:1.5;"><g id="Layer1"><path d="M296.451,811.675l-96.053,-226.68l35.513,-0l64.429,164.675c5.186,13.195 9.527,25.565 13.021,37.11c3.833,-12.37 8.287,-24.74 13.36,-37.11l66.966,-164.675l33.483,-0l-97.067,226.68l-33.652,-0Z" style="fill:#333;fill-rule:nonzero;"/><path d="M710.635,811.675l-0,-226.772l114.087,0c22.935,0 40.37,2.037 52.305,6.11c11.936,4.074 21.472,11.267 28.61,21.579c7.138,10.313 10.707,21.708 10.707,34.186c-0,16.088 -5.909,29.649 -17.728,40.683c-11.818,11.034 -30.072,18.047 -54.762,21.038c9.01,3.815 15.855,7.579 20.536,11.292c9.946,8.043 19.366,18.098 28.259,30.164l44.757,61.72l-42.827,-0l-34.05,-47.18c-9.947,-13.612 -18.138,-24.028 -24.573,-31.247c-6.436,-7.218 -12.199,-12.271 -17.289,-15.159c-5.09,-2.887 -10.268,-4.898 -15.533,-6.033c-3.862,-0.722 -10.181,-1.082 -18.957,-1.082l-39.492,-0l0,100.701l-34.05,-0Zm34.05,-126.689l73.192,0c15.563,0 27.732,-1.418 36.508,-4.254c8.776,-2.836 15.446,-7.373 20.01,-13.612c4.563,-6.239 6.845,-13.02 6.845,-20.342c-0,-10.725 -4.417,-19.542 -13.252,-26.451c-8.834,-6.91 -22.788,-10.364 -41.861,-10.364l-81.442,-0l0,75.023Z" style="fill-rule:nonzero;"/><path d="M492.391,112.305c0,-28.289 -6.808,-45.57 -20.423,-51.845c-13.616,-6.275 -30.587,-9.412 -50.912,-9.412c-41.835,-0 -79.772,8.88 -113.812,26.641c-34.04,17.76 -51.06,39.083 -51.06,63.969c0,17.867 7.548,33.447 22.644,46.741c15.096,13.294 48.001,27.917 98.716,43.869c49.136,15.315 84.113,31.107 104.931,47.379c20.819,16.272 31.228,35.893 31.228,58.865c0,23.184 -14.504,48.229 -43.511,75.136c-29.008,26.906 -63.986,47.379 -104.932,61.417c-40.947,14.038 -75.726,21.057 -104.34,21.057c-23.877,0 -41.982,-3.031 -54.315,-9.093c-12.334,-6.062 -18.5,-13.666 -18.5,-22.812c-0,-6.381 1.825,-14.197 5.476,-23.45c3.65,-9.252 7.35,-13.879 11.1,-13.879c3.946,0 7.992,0.745 12.136,2.234c21.114,8.508 42.031,12.762 62.751,12.762c37.296,-0 76.861,-11.752 118.696,-35.255c41.834,-23.504 62.752,-45.465 62.752,-65.884c-0,-8.721 -6.364,-17.069 -19.092,-25.045c-12.728,-7.977 -44.943,-20.792 -96.644,-38.446c-64.133,-21.908 -103.55,-43.231 -118.251,-63.969c-14.702,-20.739 -22.052,-42.593 -22.052,-65.565c-0,-44.242 23.581,-79.922 70.743,-107.041c47.163,-27.119 96.496,-40.679 148,-40.679c34.138,-0 60.383,6.221 78.735,18.664c18.352,12.443 27.528,26.216 27.528,41.317c0,7.232 -2.072,17.761 -6.216,31.586c-4.144,13.826 -14.602,20.738 -31.376,20.738Z" style="fill-rule:nonzero;"/><path d="M816.067,390.705c9.714,-50.229 19.229,-112.013 28.545,-185.351c9.316,-73.338 13.974,-124.57 13.974,-153.694c0,-15.406 0.916,-25.853 2.747,-31.34c1.832,-5.488 5.654,-10.236 11.466,-14.246c5.813,-4.01 12.143,-6.015 18.991,-6.015c4.459,0 8.281,4.221 11.466,12.663c3.185,8.442 4.777,18.466 4.777,30.074c0,9.075 -2.548,25.114 -7.644,48.118c-10.032,52.34 -19.906,114.44 -29.62,186.301c-9.714,71.861 -14.571,113.384 -14.571,124.57c-0,22.582 0.238,36.827 0.716,42.737c0.637,10.974 -2.03,19.627 -8.002,25.958c-5.972,6.332 -13.815,9.497 -23.529,9.497c-5.733,0 -9.595,-1.002 -11.586,-3.007c-1.99,-2.005 -6.131,-7.651 -12.421,-16.937c-6.291,-9.286 -10.232,-18.255 -11.825,-26.908c-1.274,-8.02 -6.131,-18.572 -14.571,-31.657c-45.864,-77.665 -87.109,-162.505 -123.737,-254.521c-10.351,48.752 -19.986,116.392 -28.904,202.921l-5.972,52.866c-0.637,5.277 -0.915,15.882 -0.836,31.816c0.08,15.934 -0.557,26.644 -1.911,32.131c-1.353,5.488 -4.538,11.766 -9.555,18.836c-5.016,7.07 -9.833,10.605 -14.452,10.605c-10.669,0 -16.96,-6.067 -18.871,-18.202c-1.911,-12.136 -2.866,-21.474 -2.866,-28.017c-0,-15.406 3.503,-40.521 10.51,-75.343c7.007,-34.612 15.647,-87.901 25.918,-159.867c10.272,-71.967 15.408,-117.658 15.408,-137.074l-0.239,-17.412c0.159,-6.12 1.075,-11.554 2.747,-16.303c1.672,-4.749 4.857,-8.811 9.555,-12.188c4.698,-3.377 9.356,-5.065 13.974,-5.065c4.3,-0 8.281,1.213 11.944,3.641c3.662,2.427 6.29,6.12 7.883,11.079c1.592,4.96 3.503,14.193 5.733,27.7c6.37,40.943 26.077,95.657 59.121,164.141c33.044,68.484 61.59,120.982 85.637,157.493Z" style="fill-rule:nonzero;"/><g><path d="M900.316,17.8c-0,-0 185.735,17.693 227.91,21.711c4.669,0.445 8.096,4.585 7.661,9.255c-0.277,2.966 -0.609,6.53 -0.969,10.389c-2.179,23.381 -22.901,40.569 -46.283,38.389c-46.643,-4.348 -115.14,-10.734 -115.14,-10.734" style="fill:none;stroke:#000;stroke-width:3.85px;"/><path d="M973.843,86.843c-0,-0 87.228,8.494 110.445,10.754c3.107,0.303 5.385,3.061 5.095,6.169c-0.315,3.385 -0.749,8.036 -1.232,13.217c-2.18,23.382 -22.901,40.569 -46.283,38.39c-44.464,-4.145 -108.003,-10.069 -108.003,-10.069" style="fill:none;stroke:#000;stroke-width:3.85px;"/><path d="M933.865,145.304c0,0 77.389,7.571 99.125,9.697c3.106,0.304 5.382,3.061 5.092,6.169c-0.315,3.384 -0.749,8.037 -1.232,13.219c-1.047,11.229 -6.511,21.581 -15.191,28.781c-8.679,7.199 -19.863,10.656 -31.092,9.609c-44.306,-4.131 -107.494,-10.021 -107.494,-10.021" style="fill:none;stroke:#000;stroke-width:3.85px;"/></g><path d="M455.524,925.272l-340.2,0c-62.587,0 -113.4,-50.812 -113.4,-113.4l0,-226.8c0,-62.587 50.813,-113.4 113.4,-113.4l907.2,0c62.587,0 113.4,50.813 113.4,113.4l-0,226.8c-0,62.588 -50.813,113.4 -113.4,113.4l-340.2,0c0,-62.587 -50.813,-113.4 -113.4,-113.4c-62.587,0 -113.4,50.813 -113.4,113.4Z" style="fill:none;stroke:#000;stroke-width:3.85px;"/><g><path d="M275.321,43.494c0,0 -183.839,-31.84 -225.584,-39.07c-4.621,-0.801 -9.017,2.291 -9.827,6.911c-0.514,2.934 -1.132,6.46 -1.801,10.277c-4.055,23.13 11.409,45.167 34.54,49.222c46.142,8.088 113.903,19.965 113.903,19.965" style="fill:none;stroke:#000;stroke-width:3.85px;"/><path d="M186.208,90.738c0,0 -86.387,-14.775 -109.379,-18.708c-3.077,-0.526 -6.001,1.534 -6.54,4.609c-0.587,3.349 -1.393,7.95 -2.292,13.075c-4.054,23.131 11.41,45.168 34.54,49.223c43.986,7.71 106.843,18.727 106.843,18.727" style="fill:none;stroke:#000;stroke-width:3.85px;"/><path d="M209.38,157.664c-0,-0 -76.651,-13.075 -98.18,-16.748c-3.076,-0.525 -5.998,1.536 -6.537,4.61c-0.587,3.348 -1.394,7.95 -2.292,13.077c-1.947,11.108 0.598,22.534 7.076,31.765c6.477,9.231 16.356,15.511 27.464,17.458c43.83,7.682 106.339,18.639 106.339,18.639" style="fill:none;stroke:#000;stroke-width:3.85px;"/></g></g></svg>