<?xml version="1.0" encoding="UTF-8" standalone="no"?>
<!DOCTYPE svg PUBLIC "-//W3C//DTD SVG 1.1//EN" "http://www.w3.org/Graphics/SVG/1.1/DTD/svg11.dtd">
<svg width="100%" height="100%" viewBox="0 0 9934 14044" version="1.1" xmlns="http://www.w3.org/2000/svg" xmlns:xlink="http://www.w3.org/1999/xlink" xml:space="preserve" xmlns:serif="http://www.serif.com/" style="fill-rule:evenodd;clip-rule:evenodd;stroke-linejoin:round;stroke-miterlimit:2;">
    <path d="M4966.53,3181.84C7085.79,3181.84 8806.35,4902.4 8806.35,7021.65C8806.35,9140.9 7085.79,10861.5 4966.53,10861.5C2847.28,10861.5 1126.72,9140.9 1126.72,7021.65C1126.72,4902.4 2847.28,3181.84 4966.53,3181.84ZM4966.53,4708.93C6242.96,4708.93 7279.26,5745.23 7279.26,7021.65C7279.26,8298.08 6242.96,9334.38 4966.53,9334.38C3690.11,9334.38 2653.81,8298.08 2653.81,7021.65C2653.81,5745.23 3690.11,4708.93 4966.53,4708.93Z" style="fill:rgb(235,235,235);"/>
    <g transform="matrix(1,1.11022e-16,0,1,-39.2814,-569.589)">
        <path d="M5052.47,4831.68L7188.42,9103.6L2916.51,9103.6L5052.47,4831.68Z" style="fill:rgb(235,235,235);"/>
    </g>
    <g transform="matrix(2.69856,-1.87981,1.80772,2.59508,-4897.22,2581.99)">
        <path d="M1974.31,1787.33C1975.07,1787.33 1975.83,1787.32 1976.59,1787.31C1976.85,1787.3 1977.11,1787.3 1977.37,1787.29C1978.25,1787.28 1979.13,1787.25 1980,1787.22C1980.97,1787.19 1981.93,1787.15 1982.9,1787.1C1983.26,1787.08 1983.62,1787.06 1983.98,1787.04L1984.52,1787.01L1985.05,1786.97C1985.9,1786.92 1986.76,1786.86 1987.63,1786.79L1987.89,1786.77C1988.08,1786.76 1988.27,1786.74 1988.45,1786.73L1989.01,1786.68C1990.5,1786.55 1991.99,1786.4 1993.47,1786.24L1993.54,1786.23C1994.66,1786.11 1995.78,1785.97 1996.89,1785.83L1997.34,1785.76L1997.88,1785.69C1998.8,1785.57 1999.72,1785.43 2000.64,1785.29L2001.19,1785.21L2001.74,1785.12L2002.09,1785.06C2003.8,1784.79 2005.5,1784.49 2007.18,1784.16L2007.73,1784.06C2014.94,1782.65 2022,1780.81 2028.87,1778.55C2029.04,1778.5 2029.21,1778.44 2029.38,1778.38L2029.89,1778.21C2031.44,1777.69 2032.97,1777.15 2034.49,1776.6L2035,1776.41L2035.16,1776.35C2035.78,1776.12 2036.4,1775.89 2037.02,1775.65L2037.52,1775.45L2037.86,1775.32C2041.3,1773.98 2044.7,1772.53 2048.03,1770.98C2048.81,1770.62 2049.58,1770.26 2050.35,1769.89L2050.83,1769.65C2051.96,1769.11 2053.08,1768.55 2054.18,1767.98L2054.66,1767.73C2054.85,1767.63 2055.05,1767.53 2055.24,1767.43C2055.74,1767.17 2056.24,1766.91 2056.74,1766.64C2058.39,1765.76 2060.03,1764.86 2061.65,1763.92C2061.93,1763.76 2062.22,1763.59 2062.5,1763.43C2062.77,1763.27 2063.04,1763.12 2063.31,1762.96C2063.86,1762.63 2064.4,1762.31 2064.95,1761.98C2066.46,1761.07 2067.96,1760.13 2069.43,1759.18L2069.88,1758.89L2070.33,1758.6L2070.68,1758.37C2073.96,1756.21 2077.16,1753.95 2080.29,1751.58C2080.72,1751.25 2081.16,1750.92 2081.59,1750.59C2081.87,1750.37 2082.15,1750.15 2082.43,1749.93C2082.71,1749.72 2082.98,1749.5 2083.26,1749.28L2083.68,1748.95C2084.1,1748.62 2084.51,1748.29 2084.92,1747.95L2085.33,1747.62L2085.61,1747.39C2086.25,1746.87 2086.89,1746.34 2087.52,1745.8C2088.42,1745.05 2089.31,1744.28 2090.2,1743.51C2091.74,1742.15 2093.27,1740.76 2094.77,1739.35C2095.23,1738.91 2095.69,1738.48 2096.14,1738.05L2096.44,1737.76L2096.82,1737.39C2097.16,1737.06 2097.5,1736.73 2097.84,1736.4L2097.96,1736.28L2098.21,1736.03C2098.66,1735.59 2099.1,1735.14 2099.53,1734.7C2101.37,1732.84 2103.16,1730.94 2104.92,1729L2105.28,1728.6C2105.51,1728.34 2105.75,1728.08 2105.98,1727.81L2106.33,1727.41C2106.92,1726.75 2107.49,1726.09 2108.07,1725.42L2108.07,1725.41L2108.34,1725.1C2108.51,1724.9 2108.68,1724.7 2108.85,1724.5L2109.1,1724.2L2109.42,1723.82C2109.66,1723.54 2109.89,1723.26 2110.12,1722.98C2110.66,1722.33 2111.19,1721.68 2111.72,1721.02C2111.91,1720.77 2112.11,1720.52 2112.31,1720.27L2112.46,1720.09L2112.79,1719.67C2113.89,1718.26 2114.98,1716.84 2116.04,1715.4L2116.32,1715.02C2116.43,1714.87 2116.53,1714.73 2116.63,1714.59L2116.87,1714.26C2118.27,1712.33 2119.63,1710.38 2120.96,1708.38L2121.19,1708.04L2121.34,1707.81C2134.09,1688.5 2143.16,1666.56 2147.54,1642.98C2147.58,1642.77 2147.62,1642.55 2147.65,1642.34C2148.14,1639.68 2148.56,1637 2148.93,1634.29C2149.18,1632.41 2149.4,1630.52 2149.6,1628.62C2149.71,1627.51 2149.81,1626.39 2149.9,1625.27C2150.1,1622.85 2150.26,1620.41 2150.36,1617.96L2150.38,1617.39C2150.42,1616.31 2150.45,1615.22 2150.47,1614.14C2150.5,1612.94 2150.51,1611.75 2150.51,1610.56L2150.51,1080.93L2151.52,1081.64C2323.04,1201.47 2435.3,1400.38 2435.3,1625.29C2435.3,1928.15 2231.76,2183.84 1954.1,2262.93L1954.1,4443.77C1954.1,4500.68 1907.89,4546.89 1850.98,4546.89L1644.75,4546.89C1587.84,4546.89 1541.64,4500.68 1541.64,4443.77L1541.64,2246.83C1289.41,2153.03 1109.54,1910 1109.54,1625.29C1109.54,1379.14 1243.99,1164.15 1443.43,1049.81L1443.43,1610.56C1443.43,1613.28 1443.49,1615.99 1443.62,1618.7C1443.68,1620.13 1443.76,1621.56 1443.86,1622.99C1443.88,1623.19 1443.89,1623.39 1443.91,1623.59L1443.95,1624.15C1443.98,1624.61 1444.02,1625.07 1444.06,1625.53L1444.08,1625.83L1444.1,1626.05C1444.28,1628.02 1444.48,1629.99 1444.72,1631.95C1444.74,1632.14 1444.76,1632.32 1444.78,1632.51L1444.85,1633.06C1445.02,1634.33 1445.19,1635.6 1445.38,1636.85C1445.59,1638.27 1445.82,1639.69 1446.06,1641.09C1446.43,1643.22 1446.84,1645.33 1447.29,1647.43C1447.65,1649.13 1448.04,1650.82 1448.45,1652.51L1448.47,1652.59L1448.6,1653.13C1448.67,1653.39 1448.73,1653.66 1448.8,1653.94C1448.94,1654.47 1449.08,1655.01 1449.22,1655.54C1449.81,1657.82 1450.46,1660.07 1451.14,1662.31C1451.51,1663.5 1451.88,1664.69 1452.27,1665.88C1452.53,1666.66 1452.8,1667.44 1453.07,1668.22C1453.25,1668.75 1453.43,1669.27 1453.62,1669.79L1453.8,1670.3C1454.1,1671.13 1454.4,1671.96 1454.71,1672.79C1454.98,1673.48 1455.24,1674.17 1455.51,1674.85L1455.7,1675.35C1457.09,1678.86 1458.59,1682.32 1460.18,1685.72L1460.41,1686.2C1461.27,1688.02 1462.17,1689.82 1463.09,1691.6L1463.27,1691.96C1463.36,1692.12 1463.44,1692.27 1463.52,1692.43L1463.73,1692.83C1466.08,1697.29 1468.62,1701.63 1471.32,1705.85C1471.69,1706.42 1472.07,1707 1472.44,1707.57C1477.9,1715.86 1484.03,1723.66 1490.76,1730.89C1490.94,1731.09 1491.13,1731.29 1491.32,1731.49C1492.05,1732.27 1492.79,1733.04 1493.54,1733.81L1493.74,1734.02L1494.01,1734.29C1494.23,1734.52 1494.45,1734.75 1494.68,1734.98C1495.08,1735.38 1495.49,1735.79 1495.89,1736.19L1495.98,1736.28L1496.36,1736.65L1496.74,1737.02C1497.54,1737.81 1498.35,1738.58 1499.17,1739.35L1499.42,1739.59L1499.63,1739.78C1500.08,1740.2 1500.53,1740.62 1500.98,1741.03L1501.37,1741.39C1501.9,1741.86 1502.42,1742.34 1502.95,1742.8C1503.19,1743.01 1503.42,1743.22 1503.66,1743.43C1504.21,1743.91 1504.75,1744.38 1505.3,1744.85C1505.46,1744.99 1505.62,1745.12 1505.78,1745.26L1506.16,1745.58C1506.88,1746.19 1507.6,1746.79 1508.33,1747.39L1508.61,1747.62L1509.02,1747.95C1515,1752.8 1521.3,1757.26 1527.88,1761.3L1528.11,1761.45L1528.57,1761.72C1529.3,1762.17 1530.03,1762.61 1530.77,1763.04C1530.95,1763.15 1531.14,1763.26 1531.33,1763.37C1531.89,1763.69 1532.45,1764.02 1533.01,1764.33C1533.65,1764.7 1534.29,1765.06 1534.94,1765.42L1535.03,1765.47C1535.19,1765.55 1535.35,1765.64 1535.5,1765.73L1535.93,1765.96C1536.63,1766.34 1537.34,1766.72 1538.04,1767.09L1538.33,1767.24C1538.81,1767.49 1539.28,1767.74 1539.76,1767.98L1540.23,1768.22C1541.03,1768.63 1541.83,1769.03 1542.63,1769.42L1543.11,1769.65L1543.59,1769.89C1544.08,1770.12 1544.56,1770.35 1545.05,1770.58C1548.7,1772.3 1552.42,1773.9 1556.2,1775.37L1556.42,1775.45C1557.1,1775.72 1557.79,1775.98 1558.48,1776.24L1558.94,1776.41L1559.36,1776.57C1562.94,1777.88 1566.58,1779.08 1570.26,1780.16L1570.79,1780.32L1571.31,1780.47L1571.83,1780.62L1571.96,1780.66C1576.78,1782.02 1581.67,1783.19 1586.65,1784.14L1586.76,1784.16L1587.17,1784.24C1588.73,1784.54 1590.29,1784.81 1591.86,1785.07L1592.2,1785.12L1592.75,1785.21L1593.3,1785.29C1593.66,1785.35 1594.03,1785.4 1594.39,1785.46C1594.58,1785.48 1594.76,1785.51 1594.94,1785.54C1595.31,1785.59 1595.68,1785.64 1596.05,1785.69C1596.38,1785.74 1596.72,1785.78 1597.05,1785.83C1598.12,1785.97 1599.19,1786.1 1600.27,1786.22L1600.47,1786.24C1601.95,1786.4 1603.44,1786.55 1604.93,1786.68C1605.3,1786.71 1605.67,1786.74 1606.05,1786.77L1606.61,1786.81C1607.39,1786.87 1608.18,1786.93 1608.97,1786.98L1609.42,1787.01L1609.98,1787.04C1610.17,1787.05 1610.36,1787.06 1610.55,1787.07L1611.11,1787.1C1611.39,1787.11 1611.66,1787.13 1611.94,1787.14C1614.67,1787.27 1617.43,1787.33 1620.2,1787.33L1973.74,1787.33L1974.31,1787.33Z" style="fill:rgb(90,90,90);"/>
    </g>
</svg>
